<svg xmlns="http://www.w3.org/2000/svg" xmlns:xlink="http://www.w3.org/1999/xlink" version="1.1" x="0px" y="0px" viewBox="0 0 100 125" enable-background="new 0 0 100 100" xml:space="preserve"><path d="M89.833,39.722c0,0-0.349-4.296-4.297-5.226C85.304,32.173,84.721,1.575,50,1.168l0,0l0,0c-0.001,0-0.001,0-0.001,0l0,0  C15.278,1.575,14.695,32.173,14.463,34.497c-3.948,0.929-4.296,5.226-4.296,5.226l-3.6,40.414c0,0,1.858,0.349,3.136,0.811  c25.432,16.376,32.864,17.886,32.864,17.886v-52.84c-22.994-2.902-26.594-6.154-26.594-6.154s0-1.626,0.116-3.368  c3.946,2.088,33.87,2.71,33.911,2.71l0,0H50l0,0l0,0c0.04,0,29.962-0.623,33.908-2.71c0.119,1.742,0.119,3.368,0.119,3.368  s-3.6,3.252-26.595,6.154v52.84c0,0,7.432-1.51,32.864-17.886c1.277-0.462,3.136-0.811,3.136-0.811L89.833,39.722z"/><text x="0" y="115" fill="#000000" font-size="5px" font-weight="bold" font-family="'Helvetica Neue', Helvetica, Arial-Unicode, Arial, Sans-serif">Created by Danny Mason</text><text x="0" y="120" fill="#000000" font-size="5px" font-weight="bold" font-family="'Helvetica Neue', Helvetica, Arial-Unicode, Arial, Sans-serif">from the Noun Project</text></svg>